<?plantuml 1.2026.2?><svg xmlns="http://www.w3.org/2000/svg" xmlns:xlink="http://www.w3.org/1999/xlink" contentStyleType="text/css" data-diagram-type="CLASS" height="531px" preserveAspectRatio="none" style="width:638px;height:531px;background:#FFFFFF;" version="1.1" viewBox="0 0 638 531" width="638px" zoomAndPan="magnify"><defs/><g><path d="M367,319 L434.7377,319 A3.75,3.75 0 0 1 437.2377,321.5 L444.2377,344.0679 L448.7377,344.0679 A2.5,2.5 0 0 1 451.2377,346.5679 L451.2377,374.6358 A2.5,2.5 0 0 1 448.7377,377.1358 L367,377.1358 A2.5,2.5 0 0 1 364.5,374.6358 L364.5,321.5 A2.5,2.5 0 0 1 367,319" fill="#F1F1F1" style="stroke:#181818;stroke-width:0.5;"/><line style="stroke:#181818;stroke-width:0.5;" x1="364.5" x2="444.2377" y1="344.0679" y2="344.0679"/><text fill="#000000" font-family="sans-serif" font-size="14" font-weight="bold" lengthAdjust="spacing" textLength="66.7377" x="368.5" y="335.9659">cmd_type</text><path d="M255.5,452 L340.1497,452 A3.75,3.75 0 0 1 342.6497,454.5 L349.6497,477.0679 L354.1497,477.0679 A2.5,2.5 0 0 1 356.6497,479.5679 L356.6497,507.6358 A2.5,2.5 0 0 1 354.1497,510.1358 L255.5,510.1358 A2.5,2.5 0 0 1 253,507.6358 L253,454.5 A2.5,2.5 0 0 1 255.5,452" fill="#F1F1F1" style="stroke:#181818;stroke-width:0.5;"/><line style="stroke:#181818;stroke-width:0.5;" x1="253" x2="349.6497" y1="477.0679" y2="477.0679"/><text fill="#000000" font-family="sans-serif" font-size="14" font-weight="bold" lengthAdjust="spacing" textLength="83.6497" x="257" y="468.9659">cmd_results</text><!--class Thread--><g class="entity" data-qualified-name="Thread" data-source-line="8" id="ent0004"><rect fill="#F1F1F1" height="67.0679" rx="2.5" ry="2.5" style="stroke:#181818;stroke-width:0.5;" width="75.7358" x="7" y="173"/><ellipse cx="22" cy="189" fill="#A9DCDF" rx="11" ry="11" style="stroke:#181818;stroke-width:1;"/><path d="M22.1094,184.3438 L20.9531,189.4219 L23.2813,189.4219 L22.1094,184.3438 Z M20.625,182.1094 L23.6094,182.1094 L26.9688,194.5 L24.5156,194.5 L23.75,191.4375 L20.4688,191.4375 L19.7188,194.5 L17.2813,194.5 L20.625,182.1094 Z " fill="#000000"/><text fill="#000000" font-family="sans-serif" font-size="14" font-style="italic" lengthAdjust="spacing" textLength="43.7358" x="36" y="194.432">Thread</text><line style="stroke:#181818;stroke-width:0.5;" x1="8" x2="81.7358" y1="205" y2="205"/><line style="stroke:#181818;stroke-width:0.5;" x1="8" x2="81.7358" y1="213" y2="213"/><g data-visibility-modifier="PUBLIC_METHOD"><ellipse cx="18" cy="228.034" fill="#84BE84" rx="3" ry="3" style="stroke:#038048;stroke-width:1;"/></g><text fill="#000000" font-family="sans-serif" font-size="14" lengthAdjust="spacing" textLength="31.4859" x="27" y="231.9659">run()</text></g><!--class Receiver--><g class="entity" data-qualified-name="Receiver" data-source-line="12" id="ent0005"><rect fill="#F1F1F1" height="105.2038" rx="2.5" ry="2.5" style="stroke:#181818;stroke-width:0.5;" width="199.7673" x="85" y="7"/><ellipse cx="152.8228" cy="23" fill="#ADD1B2" rx="11" ry="11" style="stroke:#181818;stroke-width:1;"/><path d="M155.7915,28.6406 Q155.2134,28.9375 154.5728,29.0781 Q153.9322,29.2344 153.229,29.2344 Q150.729,29.2344 149.4009,27.5938 Q148.0884,25.9375 148.0884,22.8125 Q148.0884,19.6875 149.4009,18.0313 Q150.729,16.375 153.229,16.375 Q153.9322,16.375 154.5728,16.5313 Q155.229,16.6875 155.7915,16.9844 L155.7915,19.7031 Q155.1665,19.125 154.5728,18.8594 Q153.979,18.5781 153.354,18.5781 Q152.0103,18.5781 151.3228,19.6563 Q150.6353,20.7188 150.6353,22.8125 Q150.6353,24.9063 151.3228,25.9844 Q152.0103,27.0469 153.354,27.0469 Q153.979,27.0469 154.5728,26.7813 Q155.1665,26.5 155.7915,25.9219 L155.7915,28.6406 Z " fill="#000000"/><text fill="#000000" font-family="sans-serif" font-size="14" lengthAdjust="spacing" textLength="55.6218" x="173.3228" y="28.432">Receiver</text><line style="stroke:#181818;stroke-width:0.5;" x1="86" x2="283.7673" y1="39" y2="39"/><g data-visibility-modifier="PRIVATE_FIELD"><rect fill="none" height="6" style="stroke:#C82930;stroke-width:1;" width="6" x="93" y="51.034"/></g><text fill="#000000" font-family="sans-serif" font-size="14" lengthAdjust="spacing" textLength="121.2676" x="105" y="57.9659">protocol : Protocol</text><g data-visibility-modifier="PRIVATE_FIELD"><rect fill="none" height="6" style="stroke:#C82930;stroke-width:1;" width="6" x="93" y="70.1019"/></g><text fill="#000000" font-family="sans-serif" font-size="14" lengthAdjust="spacing" textLength="173.7673" x="105" y="77.0339">factory : CommandFactory</text><line style="stroke:#181818;stroke-width:0.5;" x1="86" x2="283.7673" y1="85.1358" y2="85.1358"/><g data-visibility-modifier="PUBLIC_METHOD"><ellipse cx="96" cy="100.1698" fill="#84BE84" rx="3" ry="3" style="stroke:#038048;stroke-width:1;"/></g><text fill="#000000" font-family="sans-serif" font-size="14" lengthAdjust="spacing" textLength="38.8499" x="105" y="104.1018">start()</text></g><!--class Protocol--><g class="entity" data-qualified-name="Protocol" data-source-line="18" id="ent0006"><rect fill="#F1F1F1" height="67.0679" rx="2.5" ry="2.5" style="stroke:#181818;stroke-width:0.5;" width="132.9036" x="118.5" y="173"/><ellipse cx="154.1351" cy="189" fill="#ADD1B2" rx="11" ry="11" style="stroke:#181818;stroke-width:1;"/><path d="M157.1038,194.6406 Q156.5257,194.9375 155.8851,195.0781 Q155.2445,195.2344 154.5413,195.2344 Q152.0413,195.2344 150.7132,193.5938 Q149.4007,191.9375 149.4007,188.8125 Q149.4007,185.6875 150.7132,184.0313 Q152.0413,182.375 154.5413,182.375 Q155.2445,182.375 155.8851,182.5313 Q156.5413,182.6875 157.1038,182.9844 L157.1038,185.7031 Q156.4788,185.125 155.8851,184.8594 Q155.2913,184.5781 154.6663,184.5781 Q153.3226,184.5781 152.6351,185.6563 Q151.9476,186.7188 151.9476,188.8125 Q151.9476,190.9063 152.6351,191.9844 Q153.3226,193.0469 154.6663,193.0469 Q155.2913,193.0469 155.8851,192.7813 Q156.4788,192.5 157.1038,191.9219 L157.1038,194.6406 Z " fill="#000000"/><text fill="#000000" font-family="sans-serif" font-size="14" lengthAdjust="spacing" textLength="55.0478" x="172.7207" y="194.432">Protocol</text><line style="stroke:#181818;stroke-width:0.5;" x1="119.5" x2="250.4036" y1="205" y2="205"/><g data-visibility-modifier="PRIVATE_FIELD"><rect fill="none" height="6" style="stroke:#C82930;stroke-width:1;" width="6" x="126.5" y="217.034"/></g><text fill="#000000" font-family="sans-serif" font-size="14" lengthAdjust="spacing" textLength="106.9036" x="138.5" y="223.9659">socket : Socket&amp;</text><line style="stroke:#181818;stroke-width:0.5;" x1="119.5" x2="250.4036" y1="232.0679" y2="232.0679"/></g><!--class CommandFactory--><g class="entity" data-qualified-name="CommandFactory" data-source-line="22" id="ent0007"><rect fill="#F1F1F1" height="67.0679" rx="2.5" ry="2.5" style="stroke:#181818;stroke-width:0.5;" width="243.1812" x="286.5" y="173"/><ellipse cx="345.3908" cy="189" fill="#ADD1B2" rx="11" ry="11" style="stroke:#181818;stroke-width:1;"/><path d="M348.3595,194.6406 Q347.7814,194.9375 347.1408,195.0781 Q346.5002,195.2344 345.797,195.2344 Q343.297,195.2344 341.9689,193.5938 Q340.6564,191.9375 340.6564,188.8125 Q340.6564,185.6875 341.9689,184.0313 Q343.297,182.375 345.797,182.375 Q346.5002,182.375 347.1408,182.5313 Q347.797,182.6875 348.3595,182.9844 L348.3595,185.7031 Q347.7345,185.125 347.1408,184.8594 Q346.547,184.5781 345.922,184.5781 Q344.5783,184.5781 343.8908,185.6563 Q343.2033,186.7188 343.2033,188.8125 Q343.2033,190.9063 343.8908,191.9844 Q344.5783,193.0469 345.922,193.0469 Q346.547,193.0469 347.1408,192.7813 Q347.7345,192.5 348.3595,191.9219 L348.3595,194.6406 Z " fill="#000000"/><text fill="#000000" font-family="sans-serif" font-size="14" lengthAdjust="spacing" textLength="116.8996" x="365.8908" y="194.432">CommandFactory</text><line style="stroke:#181818;stroke-width:0.5;" x1="287.5" x2="528.6812" y1="205" y2="205"/><line style="stroke:#181818;stroke-width:0.5;" x1="287.5" x2="528.6812" y1="213" y2="213"/><g data-visibility-modifier="PUBLIC_METHOD"><ellipse cx="297.5" cy="228.034" fill="#84BE84" rx="3" ry="3" style="stroke:#038048;stroke-width:1;"/></g><text fill="#000000" font-family="sans-serif" font-size="14" lengthAdjust="spacing" textLength="217.1812" x="306.5" y="231.9659">create(RequestedCommandDTO)</text></g><!--class Command--><g class="entity" data-qualified-name="Command" data-source-line="26" id="ent0008"><rect fill="#F1F1F1" height="86.1358" rx="2.5" ry="2.5" style="stroke:#181818;stroke-width:0.5;" width="239.8212" x="392" y="438"/><ellipse cx="475.2787" cy="454" fill="#B4A7E5" rx="11" ry="11" style="stroke:#181818;stroke-width:1;"/><path d="M471.2006,449.7656 L471.2006,447.6094 L478.5912,447.6094 L478.5912,449.7656 L476.1225,449.7656 L476.1225,457.8438 L478.5912,457.8438 L478.5912,460 L471.2006,460 L471.2006,457.8438 L473.6693,457.8438 L473.6693,449.7656 L471.2006,449.7656 Z " fill="#000000"/><text fill="#000000" font-family="sans-serif" font-size="14" font-style="italic" lengthAdjust="spacing" textLength="64.7638" x="495.7787" y="459.432">Command</text><line style="stroke:#181818;stroke-width:0.5;" x1="393" x2="630.8212" y1="470" y2="470"/><line style="stroke:#181818;stroke-width:0.5;" x1="393" x2="630.8212" y1="478" y2="478"/><g data-visibility-modifier="PUBLIC_METHOD"><ellipse cx="403" cy="493.034" fill="#84BE84" rx="3" ry="3" style="stroke:#038048;stroke-width:1;"/></g><text fill="#000000" font-family="sans-serif" font-size="14" font-style="italic" lengthAdjust="spacing" textLength="138.1935" x="412" y="496.9659">execute(GameWorld&amp;)</text><g data-visibility-modifier="PUBLIC_METHOD"><ellipse cx="403" cy="512.1019" fill="#84BE84" rx="3" ry="3" style="stroke:#038048;stroke-width:1;"/></g><text fill="#000000" font-family="sans-serif" font-size="14" font-style="italic" lengthAdjust="spacing" textLength="213.8212" x="412" y="516.0339">build_snapshot(SnapshotBuilder&amp;)</text></g><!--link Receiver to Thread--><g class="link" data-entity-1="ent0005" data-entity-2="ent0004" data-link-type="extension" data-source-line="31" id="lnk9"><path codeLine="31" d="M135.25,112.03 C115.76,132.22 106.4717,141.8298 89.1917,159.7298" fill="none" id="Receiver-to-Thread" style="stroke:#181818;stroke-width:1;"/><polygon fill="none" points="76.69,172.68,93.5084,163.897,84.8749,155.5626,76.69,172.68" style="stroke:#181818;stroke-width:1;"/></g><!--reverse link Receiver to Protocol--><g class="link" data-entity-1="ent0005" data-entity-2="ent0006" data-link-type="composition" data-source-line="32" id="lnk10"><path codeLine="32" d="M185,124.03 C185,144.22 185,154.78 185,172.68" fill="none" id="Receiver-backto-Protocol" style="stroke:#181818;stroke-width:1;"/><polygon fill="#181818" points="185,112.03,181,118.03,185,124.03,189,118.03,185,112.03" style="stroke:#181818;stroke-width:1;"/></g><!--reverse link Receiver to CommandFactory--><g class="link" data-entity-1="ent0005" data-entity-2="ent0007" data-link-type="composition" data-source-line="33" id="lnk11"><path codeLine="33" d="M274.3099,118.572 C305.4799,138.842 330.27,154.96 357.85,172.89" fill="none" id="Receiver-backto-CommandFactory" style="stroke:#181818;stroke-width:1;"/><polygon fill="#181818" points="264.25,112.03,267.0993,118.6543,274.3099,118.572,271.4606,111.9477,264.25,112.03" style="stroke:#181818;stroke-width:1;"/></g><!--link CommandFactory to cmd_type--><g class="link" data-entity-1="ent0007" data-entity-2="ent0002" data-link-type="dependency" data-source-line="35" id="lnk12"><path codeLine="35" d="M408,240.21 C408,264.04 408,290.01 408,312.74" fill="none" id="CommandFactory-to-cmd_type" style="stroke:#181818;stroke-width:1;stroke-dasharray:7,7;"/><polygon fill="#181818" points="408,318.74,412,309.74,408,313.74,404,309.74,408,318.74" style="stroke:#181818;stroke-width:1;"/><text fill="#000000" font-family="sans-serif" font-size="13" lengthAdjust="spacing" textLength="26.234" x="409" y="284.897">crea</text></g><!--reverse link cmd_type to cmd_results--><g class="link" data-entity-1="ent0002" data-entity-2="ent0003" data-link-type="composition" data-source-line="36" id="lnk13"><path codeLine="36" d="M378.4867,386.5363 C361.1167,408.6463 344.43,429.85 327.06,451.94" fill="none" id="cmd_type-backto-cmd_results" style="stroke:#181818;stroke-width:1;"/><polygon fill="#181818" points="385.9,377.1,379.0479,379.347,378.4867,386.5363,385.3388,384.2892,385.9,377.1" style="stroke:#181818;stroke-width:1;"/></g><!--link cmd_type to Command--><g class="link" data-entity-1="ent0002" data-entity-2="ent0008" data-link-type="extension" data-source-line="37" id="lnk14"><path codeLine="37" d="M430.31,377.1 C444.34,394.77 451.5075,403.8029 467.2675,423.6529" fill="none" id="cmd_type-to-Command" style="stroke:#181818;stroke-width:1;stroke-dasharray:7,7;"/><polygon fill="none" points="478.46,437.75,471.9666,419.9221,462.5685,427.3837,478.46,437.75" style="stroke:#181818;stroke-width:1;"/></g><?plantuml-src PL7BRi8m4BpxArOSegHLyW4SEBHLUmG1Ke_8sDiIuSJfUbCLKRwedz0RNrO7d1VrQJKpEveTLrBjvJl2H1LwmuSA9t0K9o6g8KxeQiCkK7BhcAHYK4Ow1-iTeTIU0l_kWUeoJXhPbLsYmlmJAV0fL6JPAcjW2eim1kRDUrewUEBH5eKizVCL2CQE9V7Gkbtlh9rLUsI_lxeCKIyT6tPPbK_E62_neqR7g8FiQJrFe5dEIqRoiR0rw3QFRGadm2zKjNTvaGM-MZ8wIlwBjdLkzCQLid8xo_4g30yDZ1HThkggIjFlMQYr1-_Ij2ziXDwq9MwEpRBPy7UdSFvfxZx_YW7Q-8o_UiXccG_KLY3-0000?></g></svg>