<?plantuml 1.2026.2?><svg xmlns="http://www.w3.org/2000/svg" xmlns:xlink="http://www.w3.org/1999/xlink" contentStyleType="text/css" data-diagram-type="SEQUENCE" height="790px" preserveAspectRatio="none" style="width:1207px;height:790px;background:#FFFFFF;" version="1.1" viewBox="0 0 1207 790" width="1207px" zoomAndPan="magnify"><defs/><g><g><title>ClientGame</title><rect fill="#FFFFFF" height="126.8241" style="stroke:#181818;stroke-width:1;" width="10" x="287.044" y="489.2461"/></g><g><title>ConnectionHandler</title><rect fill="#FFFFFF" height="190.2361" style="stroke:#181818;stroke-width:1;" width="10" x="438.7461" y="425.8341"/></g><g><title>Acceptor</title><rect fill="#FFFFFF" height="460.5902" style="stroke:#181818;stroke-width:1;" width="10" x="555.7478" y="155.4799"/></g><g><title>LobbyHandler</title><rect fill="#FFFFFF" height="428.8842" style="stroke:#181818;stroke-width:1;" width="10" x="682.5663" y="187.186"/></g><g><title>GameAcceptor</title><rect fill="#FFFFFF" height="522.0023" style="stroke:#181818;stroke-width:1;" width="10" x="1045.079" y="94.0679"/></g><g class="participant-lifeline" data-entity-uid="part1" data-qualified-name="LW" id="part1-lifeline"><g><title>LoginWindow</title><rect fill="#000000" fill-opacity="0.00000" height="623.1203" width="8" x="49.0238" y="84.0679"/><line style="stroke:#181818;stroke-width:0.5;stroke-dasharray:5,5;" x1="53" x2="53" y1="84.0679" y2="707.1882"/></g></g><g class="participant-lifeline" data-entity-uid="part2" data-qualified-name="CG" id="part2-lifeline"><g><title>ClientGame</title><rect fill="#000000" fill-opacity="0.00000" height="623.1203" width="8" x="288.044" y="84.0679"/><line style="stroke:#181818;stroke-width:0.5;stroke-dasharray:5,5;" x1="291.6912" x2="291.6912" y1="84.0679" y2="707.1882"/></g></g><g class="participant-lifeline" data-entity-uid="part3" data-qualified-name="CH" id="part3-lifeline"><g><title>ConnectionHandler</title><rect fill="#000000" fill-opacity="0.00000" height="623.1203" width="8" x="439.7461" y="84.0679"/><line style="stroke:#181818;stroke-width:0.5;stroke-dasharray:5,5;" x1="442.8434" x2="442.8434" y1="84.0679" y2="707.1882"/></g></g><g class="participant-lifeline" data-entity-uid="part4" data-qualified-name="ACC" id="part4-lifeline"><g><title>Acceptor</title><rect fill="#000000" fill-opacity="0.00000" height="623.1203" width="8" x="556.7478" y="84.0679"/><line style="stroke:#181818;stroke-width:0.5;stroke-dasharray:5,5;" x1="560.6489" x2="560.6489" y1="84.0679" y2="707.1882"/></g></g><g class="participant-lifeline" data-entity-uid="part5" data-qualified-name="LH" id="part5-lifeline"><g><title>LobbyHandler</title><rect fill="#000000" fill-opacity="0.00000" height="623.1203" width="8" x="683.5663" y="84.0679"/><line style="stroke:#181818;stroke-width:0.5;stroke-dasharray:5,5;" x1="687.0935" x2="687.0935" y1="84.0679" y2="707.1882"/></g></g><g class="participant-lifeline" data-entity-uid="part6" data-qualified-name="Q" id="part6-lifeline"><g><title>waiting_players</title><rect fill="#000000" fill-opacity="0.00000" height="623.1203" width="8" x="903.9085" y="84.0679"/><line style="stroke:#181818;stroke-width:0.5;stroke-dasharray:5,5;" x1="907.3528" x2="907.3528" y1="84.0679" y2="707.1882"/></g></g><g class="participant-lifeline" data-entity-uid="part7" data-qualified-name="GA" id="part7-lifeline"><g><title>GameAcceptor</title><rect fill="#000000" fill-opacity="0.00000" height="623.1203" width="8" x="1046.079" y="84.0679"/><line style="stroke:#181818;stroke-width:0.5;stroke-dasharray:5,5;" x1="1049.4642" x2="1049.4642" y1="84.0679" y2="707.1882"/></g></g><g class="participant participant-head" data-entity-uid="part1" data-qualified-name="LW" id="part1-head"><text fill="#000000" font-family="sans-serif" font-size="14" lengthAdjust="spacing" textLength="90.0476" x="5" y="79.9659">LoginWindow</text><ellipse cx="53.0238" cy="13.5" fill="#E2E2F0" rx="8" ry="8" style="stroke:#181818;stroke-width:0.5;"/><path d="M53.0238,21.5 L53.0238,48.5 M40.0238,29.5 L66.0238,29.5 M53.0238,48.5 L40.0238,63.5 M53.0238,48.5 L66.0238,63.5" fill="none" style="stroke:#181818;stroke-width:0.5;"/></g><g class="participant participant-tail" data-entity-uid="part1" data-qualified-name="LW" id="part1-tail"><text fill="#000000" font-family="sans-serif" font-size="14" lengthAdjust="spacing" textLength="90.0476" x="5" y="721.1542">LoginWindow</text><ellipse cx="53.0238" cy="733.7562" fill="#E2E2F0" rx="8" ry="8" style="stroke:#181818;stroke-width:0.5;"/><path d="M53.0238,741.7562 L53.0238,768.7562 M40.0238,749.7562 L66.0238,749.7562 M53.0238,768.7562 L40.0238,783.7562 M53.0238,768.7562 L66.0238,783.7562" fill="none" style="stroke:#181818;stroke-width:0.5;"/></g><g class="participant participant-head" data-entity-uid="part2" data-qualified-name="CG" id="part2-head"><rect fill="#E2E2F0" height="33.0679" rx="2.5" ry="2.5" style="stroke:#181818;stroke-width:0.5;" width="90.7057" x="246.6912" y="50"/><text fill="#000000" font-family="sans-serif" font-size="14" lengthAdjust="spacing" textLength="76.7057" x="253.6912" y="71.9659">ClientGame</text></g><g class="participant participant-tail" data-entity-uid="part2" data-qualified-name="CG" id="part2-tail"><rect fill="#E2E2F0" height="33.0679" rx="2.5" ry="2.5" style="stroke:#181818;stroke-width:0.5;" width="90.7057" x="246.6912" y="706.1882"/><text fill="#000000" font-family="sans-serif" font-size="14" lengthAdjust="spacing" textLength="76.7057" x="253.6912" y="728.1542">ClientGame</text></g><g class="participant participant-head" data-entity-uid="part3" data-qualified-name="CH" id="part3-head"><rect fill="#E2E2F0" height="33.0679" rx="2.5" ry="2.5" style="stroke:#181818;stroke-width:0.5;" width="141.8055" x="372.8434" y="50"/><text fill="#000000" font-family="sans-serif" font-size="14" lengthAdjust="spacing" textLength="127.8055" x="379.8434" y="71.9659">ConnectionHandler</text></g><g class="participant participant-tail" data-entity-uid="part3" data-qualified-name="CH" id="part3-tail"><rect fill="#E2E2F0" height="33.0679" rx="2.5" ry="2.5" style="stroke:#181818;stroke-width:0.5;" width="141.8055" x="372.8434" y="706.1882"/><text fill="#000000" font-family="sans-serif" font-size="14" lengthAdjust="spacing" textLength="127.8055" x="379.8434" y="728.1542">ConnectionHandler</text></g><g class="participant participant-head" data-entity-uid="part4" data-qualified-name="ACC" id="part4-head"><rect fill="#E2E2F0" height="52.1358" rx="2.5" ry="2.5" style="stroke:#181818;stroke-width:0.5;" width="72.1978" x="524.6489" y="30.9321"/><text fill="#000000" font-family="sans-serif" font-size="14" lengthAdjust="spacing" textLength="58.1978" x="531.6489" y="52.898">Acceptor</text><text fill="#000000" font-family="sans-serif" font-size="14" lengthAdjust="spacing" textLength="58.0998" x="531.6979" y="71.9659">&#171;thread&#187;</text></g><g class="participant participant-tail" data-entity-uid="part4" data-qualified-name="ACC" id="part4-tail"><rect fill="#E2E2F0" height="52.1358" rx="2.5" ry="2.5" style="stroke:#181818;stroke-width:0.5;" width="72.1978" x="524.6489" y="706.1882"/><text fill="#000000" font-family="sans-serif" font-size="14" lengthAdjust="spacing" textLength="58.1978" x="531.6489" y="728.1542">Acceptor</text><text fill="#000000" font-family="sans-serif" font-size="14" lengthAdjust="spacing" textLength="58.0998" x="531.6979" y="747.2221">&#171;thread&#187;</text></g><g class="participant participant-head" data-entity-uid="part5" data-qualified-name="LH" id="part5-head"><rect fill="#E2E2F0" height="52.1358" rx="2.5" ry="2.5" style="stroke:#181818;stroke-width:0.5;" width="106.9456" x="634.0935" y="30.9321"/><text fill="#000000" font-family="sans-serif" font-size="14" lengthAdjust="spacing" textLength="92.9456" x="641.0935" y="52.898">LobbyHandler</text><text fill="#000000" font-family="sans-serif" font-size="14" lengthAdjust="spacing" textLength="58.0998" x="658.5164" y="71.9659">&#171;thread&#187;</text></g><g class="participant participant-tail" data-entity-uid="part5" data-qualified-name="LH" id="part5-tail"><rect fill="#E2E2F0" height="52.1358" rx="2.5" ry="2.5" style="stroke:#181818;stroke-width:0.5;" width="106.9456" x="634.0935" y="706.1882"/><text fill="#000000" font-family="sans-serif" font-size="14" lengthAdjust="spacing" textLength="92.9456" x="641.0935" y="728.1542">LobbyHandler</text><text fill="#000000" font-family="sans-serif" font-size="14" lengthAdjust="spacing" textLength="58.0998" x="658.5164" y="747.2221">&#171;thread&#187;</text></g><g class="participant participant-head" data-entity-uid="part6" data-qualified-name="Q" id="part6-head"><path d="M836.3528,35.9321 L979.4642,35.9321 C984.4642,35.9321 984.4642,60 984.4642,60 C984.4642,60 984.4642,84.0679 979.4642,84.0679 L836.3528,84.0679 C831.3528,84.0679 831.3528,60 831.3528,60 C831.3528,60 831.3528,35.9321 836.3528,35.9321" fill="#E2E2F0" style="stroke:#181818;stroke-width:0.5;"/><path d="M979.4642,35.9321 C974.4642,35.9321 974.4642,60 974.4642,60 C974.4642,84.0679 979.4642,84.0679 979.4642,84.0679" fill="none" style="stroke:#181818;stroke-width:0.5;"/><text fill="#000000" font-family="sans-serif" font-size="14" lengthAdjust="spacing" textLength="102.2136" x="851.8017" y="55.898">waiting_players</text><text fill="#000000" font-family="sans-serif" font-size="14" lengthAdjust="spacing" textLength="133.1115" x="836.3528" y="74.9659">&#171;ThreadSafeQueue&#187;</text></g><g class="participant participant-tail" data-entity-uid="part6" data-qualified-name="Q" id="part6-tail"><path d="M836.3528,706.1882 L979.4642,706.1882 C984.4642,706.1882 984.4642,730.2562 984.4642,730.2562 C984.4642,730.2562 984.4642,754.3241 979.4642,754.3241 L836.3528,754.3241 C831.3528,754.3241 831.3528,730.2562 831.3528,730.2562 C831.3528,730.2562 831.3528,706.1882 836.3528,706.1882" fill="#E2E2F0" style="stroke:#181818;stroke-width:0.5;"/><path d="M979.4642,706.1882 C974.4642,706.1882 974.4642,730.2562 974.4642,730.2562 C974.4642,754.3241 979.4642,754.3241 979.4642,754.3241" fill="none" style="stroke:#181818;stroke-width:0.5;"/><text fill="#000000" font-family="sans-serif" font-size="14" lengthAdjust="spacing" textLength="102.2136" x="851.8017" y="726.1542">waiting_players</text><text fill="#000000" font-family="sans-serif" font-size="14" lengthAdjust="spacing" textLength="133.1115" x="836.3528" y="745.2221">&#171;ThreadSafeQueue&#187;</text></g><g class="participant participant-head" data-entity-uid="part7" data-qualified-name="GA" id="part7-head"><rect fill="#E2E2F0" height="52.1358" rx="2.5" ry="2.5" style="stroke:#181818;stroke-width:0.5;" width="111.2296" x="994.4642" y="30.9321"/><text fill="#000000" font-family="sans-serif" font-size="14" lengthAdjust="spacing" textLength="97.2296" x="1001.4642" y="52.898">GameAcceptor</text><text fill="#000000" font-family="sans-serif" font-size="14" lengthAdjust="spacing" textLength="58.0998" x="1021.0292" y="71.9659">&#171;thread&#187;</text></g><g class="participant participant-tail" data-entity-uid="part7" data-qualified-name="GA" id="part7-tail"><rect fill="#E2E2F0" height="52.1358" rx="2.5" ry="2.5" style="stroke:#181818;stroke-width:0.5;" width="111.2296" x="994.4642" y="706.1882"/><text fill="#000000" font-family="sans-serif" font-size="14" lengthAdjust="spacing" textLength="97.2296" x="1001.4642" y="728.1542">GameAcceptor</text><text fill="#000000" font-family="sans-serif" font-size="14" lengthAdjust="spacing" textLength="58.0998" x="1021.0292" y="747.2221">&#171;thread&#187;</text></g><g><title>ClientGame</title><rect fill="#FFFFFF" height="126.8241" style="stroke:#181818;stroke-width:1;" width="10" x="287.044" y="489.2461"/></g><g><title>ConnectionHandler</title><rect fill="#FFFFFF" height="190.2361" style="stroke:#181818;stroke-width:1;" width="10" x="438.7461" y="425.8341"/></g><g><title>Acceptor</title><rect fill="#FFFFFF" height="460.5902" style="stroke:#181818;stroke-width:1;" width="10" x="555.7478" y="155.4799"/></g><g><title>LobbyHandler</title><rect fill="#FFFFFF" height="428.8842" style="stroke:#181818;stroke-width:1;" width="10" x="682.5663" y="187.186"/></g><g><title>GameAcceptor</title><rect fill="#FFFFFF" height="522.0023" style="stroke:#181818;stroke-width:1;" width="10" x="1045.079" y="94.0679"/></g><path d="M1060,99.0679 L1060,126.0679 L1200,126.0679 L1200,109.0679 L1190,99.0679 L1060,99.0679" fill="#FEFFDD" style="stroke:#181818;stroke-width:0.5;"/><path d="M1190,99.0679 L1190,109.0679 L1200,109.0679 L1190,99.0679" fill="#FEFFDD" style="stroke:#181818;stroke-width:0.5;"/><text fill="#000000" font-family="sans-serif" font-size="13" lengthAdjust="spacing" textLength="119.5091" x="1066" y="117.9649">bloqueado en pop()</text><g class="message" data-entity-1="part1" data-entity-2="part4" id="msg1"><polygon fill="#181818" points="543.7478,151.4799,553.7478,155.4799,543.7478,159.4799,547.7478,155.4799" style="stroke:#181818;stroke-width:1;"/><line style="stroke:#181818;stroke-width:1;" x1="53.0238" x2="549.7478" y1="155.4799" y2="155.4799"/><text fill="#000000" font-family="sans-serif" font-size="13" lengthAdjust="spacing" textLength="107.6141" x="60.0238" y="149.6709">Socket(host, port)</text></g><g class="message" data-entity-1="part4" data-entity-2="part5" id="msg2"><polygon fill="#181818" points="670.5663,183.186,680.5663,187.186,670.5663,191.186,674.5663,187.186" style="stroke:#181818;stroke-width:1;"/><line style="stroke:#181818;stroke-width:1;" x1="565.7478" x2="676.5663" y1="187.186" y2="187.186"/><text fill="#000000" font-family="sans-serif" font-size="13" lengthAdjust="spacing" textLength="95.3291" x="572.7478" y="181.377">send_to_lobby()</text></g><g class="message" data-entity-1="part1" data-entity-2="part5" id="msg3"><polygon fill="#181818" points="670.5663,214.892,680.5663,218.892,670.5663,222.892,674.5663,218.892" style="stroke:#181818;stroke-width:1;"/><line style="stroke:#181818;stroke-width:1;" x1="53.0238" x2="676.5663" y1="218.892" y2="218.892"/><text fill="#000000" font-family="sans-serif" font-size="13" lengthAdjust="spacing" textLength="188.1882" x="60.0238" y="213.083">protocol.send(CredentialsDTO)</text></g><g class="message" data-entity-1="part5" data-entity-2="part1" id="msg4"><polygon fill="#181818" points="64.0238,264.304,54.0238,268.304,64.0238,272.304,60.0238,268.304" style="stroke:#181818;stroke-width:1;"/><line style="stroke:#181818;stroke-width:1;" x1="58.0238" x2="681.5663" y1="268.304" y2="268.304"/><text fill="#000000" font-family="sans-serif" font-size="13" lengthAdjust="spacing" textLength="151.2681" x="70.0238" y="244.789">protocol.recv_existence()</text><text fill="#000000" font-family="sans-serif" font-size="13" lengthAdjust="spacing" textLength="91.9881" x="70.0238" y="262.495">(ExistenceDTO)</text></g><g class="message" data-entity-1="part1" data-entity-2="part5" id="msg5"><polygon fill="#181818" points="670.5663,296.01,680.5663,300.01,670.5663,304.01,674.5663,300.01" style="stroke:#181818;stroke-width:1;"/><line style="stroke:#181818;stroke-width:1;" x1="53.0238" x2="676.5663" y1="300.01" y2="300.01"/><text fill="#000000" font-family="sans-serif" font-size="13" lengthAdjust="spacing" textLength="197.0672" x="60.0238" y="294.201">protocol.send(CreatePlayerDTO)</text></g><g class="message" data-entity-1="part5" data-entity-2="part1" id="msg6"><polygon fill="#181818" points="64.0238,345.4221,54.0238,349.4221,64.0238,353.4221,60.0238,349.4221" style="stroke:#181818;stroke-width:1;"/><line style="stroke:#181818;stroke-width:1;" x1="58.0238" x2="681.5663" y1="349.4221" y2="349.4221"/><text fill="#000000" font-family="sans-serif" font-size="13" lengthAdjust="spacing" textLength="151.2681" x="70.0238" y="325.907">protocol.recv_existence()</text><text fill="#000000" font-family="sans-serif" font-size="13" lengthAdjust="spacing" textLength="91.9881" x="70.0238" y="343.6131">(ExistenceDTO)</text></g><g class="message" data-entity-1="part5" data-entity-2="part5" id="msg7"><line style="stroke:#181818;stroke-width:1;" x1="692.5663" x2="734.5663" y1="381.1281" y2="381.1281"/><line style="stroke:#181818;stroke-width:1;" x1="734.5663" x2="734.5663" y1="381.1281" y2="394.1281"/><line style="stroke:#181818;stroke-width:1;" x1="693.5663" x2="734.5663" y1="394.1281" y2="394.1281"/><polygon fill="#181818" points="703.5663,390.1281,693.5663,394.1281,703.5663,398.1281,699.5663,394.1281" style="stroke:#181818;stroke-width:1;"/><text fill="#000000" font-family="sans-serif" font-size="13" lengthAdjust="spacing" textLength="186.3421" x="699.5663" y="375.3191">server_loader.get_client_data()</text></g><g class="message" data-entity-1="part1" data-entity-2="part3" id="msg8"><polygon fill="#181818" points="426.7461,421.8341,436.7461,425.8341,426.7461,429.8341,430.7461,425.8341" style="stroke:#181818;stroke-width:1;"/><line style="stroke:#181818;stroke-width:1;" x1="53.0238" x2="432.7461" y1="425.8341" y2="425.8341"/><text fill="#000000" font-family="sans-serif" font-size="13" lengthAdjust="spacing" textLength="166.6862" x="60.0238" y="420.0251">ConnectionHandler(Socket)</text></g><g class="message" data-entity-1="part5" data-entity-2="part3" id="msg9"><polygon fill="#181818" points="459.7461,453.5401,449.7461,457.5401,459.7461,461.5401,455.7461,457.5401" style="stroke:#181818;stroke-width:1;"/><line style="stroke:#181818;stroke-width:1;" x1="453.7461" x2="681.5663" y1="457.5401" y2="457.5401"/><text fill="#000000" font-family="sans-serif" font-size="13" lengthAdjust="spacing" textLength="209.8202" x="465.7461" y="451.7311">protocol.send(ClientMapDataDTO)</text></g><g class="message" data-entity-1="part1" data-entity-2="part2" id="msg10"><polygon fill="#181818" points="275.044,485.2461,285.044,489.2461,275.044,493.2461,279.044,489.2461" style="stroke:#181818;stroke-width:1;"/><line style="stroke:#181818;stroke-width:1;" x1="53.0238" x2="281.044" y1="489.2461" y2="489.2461"/><text fill="#000000" font-family="sans-serif" font-size="13" lengthAdjust="spacing" textLength="215.0202" x="60.0238" y="483.4371">ClientGame(ConnectionHandler, ...)</text></g><g class="message" data-entity-1="part2" data-entity-2="part3" id="msg11"><polygon fill="#181818" points="426.7461,516.9521,436.7461,520.9521,426.7461,524.9521,430.7461,520.9521" style="stroke:#181818;stroke-width:1;"/><line style="stroke:#181818;stroke-width:1;" x1="297.044" x2="432.7461" y1="520.9521" y2="520.9521"/><text fill="#000000" font-family="sans-serif" font-size="13" lengthAdjust="spacing" textLength="84.5781" x="304.044" y="515.1431">recieve_map()</text></g><g class="message" data-entity-1="part3" data-entity-2="part2" id="msg12"><polygon fill="#181818" points="308.044,548.6582,298.044,552.6582,308.044,556.6582,304.044,552.6582" style="stroke:#181818;stroke-width:1;"/><line style="stroke:#181818;stroke-width:1;stroke-dasharray:2,2;" x1="302.044" x2="437.7461" y1="552.6582" y2="552.6582"/><text fill="#000000" font-family="sans-serif" font-size="13" lengthAdjust="spacing" textLength="117.7021" x="314.044" y="546.8492">ClientMapDataDTO</text></g><g class="message" data-entity-1="part5" data-entity-2="part6" id="msg13"><polygon fill="#181818" points="895.9085,580.3642,905.9085,584.3642,895.9085,588.3642,899.9085,584.3642" style="stroke:#181818;stroke-width:1;"/><line style="stroke:#181818;stroke-width:1;" x1="692.5663" x2="901.9085" y1="584.3642" y2="584.3642"/><text fill="#000000" font-family="sans-serif" font-size="13" lengthAdjust="spacing" textLength="132.5351" x="699.5663" y="578.5552">push(ConnectionInfo)</text></g><g class="message" data-entity-1="part6" data-entity-2="part7" id="msg14"><polygon fill="#181818" points="1038.079,612.0702,1048.079,616.0702,1038.079,620.0702,1042.079,616.0702" style="stroke:#181818;stroke-width:1;"/><line style="stroke:#181818;stroke-width:1;" x1="907.9085" x2="1044.079" y1="616.0702" y2="616.0702"/><text fill="#000000" font-family="sans-serif" font-size="13" lengthAdjust="spacing" textLength="31.655" x="914.9085" y="610.2612">pop()</text></g><path d="M1055,629.0702 L1055,692.0702 L1148,692.0702 L1148,639.0702 L1138,629.0702 L1055,629.0702" fill="#FEFFDD" style="stroke:#181818;stroke-width:0.5;"/><path d="M1138,629.0702 L1138,639.0702 L1148,639.0702 L1138,629.0702" fill="#FEFFDD" style="stroke:#181818;stroke-width:0.5;"/><text fill="#000000" font-family="sans-serif" font-size="13" lengthAdjust="spacing" textLength="49.933" x="1061" y="647.9672">vuelve a</text><text fill="#000000" font-family="sans-serif" font-size="13" lengthAdjust="spacing" textLength="68.7961" x="1061" y="665.6732">bloquearse</text><text fill="#000000" font-family="sans-serif" font-size="13" lengthAdjust="spacing" textLength="50.4011" x="1061" y="683.3792">en pop()</text><?plantuml-src fPBTYjim48Nl_HGYLpRi-W7A4WZU4XTSsh0BkGcOYJH9HBqQLvvuks_VaPpKzgO_5yrD6C-dEJgZ0vh9gqL5H-ksrXbwNIZeLBLLIGkUhROjE5QBeh7eU0ql6Fl5-bsRd4FDbbm9pZJe1wgSKokjiHMzdNjuu9D7CCjb15T5CIShsk_VBgDkwAfClf_nZ6hn2fQjEzPj0s_ekq0-H_893hW9pEN8PZu--FZZPTQh907nqWDZA1p9lxV74oiwo0VrGUqRaXk08OLEjTIcMPB8okwNmOdqdqX_GqvFrF6Tz3rduyJWDL02LwMm7JfJCzLDi9nEGB5v6HgvrXEJfYOF1zB2ev47iT1qZyzViaIG06wde4VTr_Z3TenEOvhjNFhnMiL3VnqlL_WQr_e_yyk9JT-Z5vTWqET7v5h7IDK66CRz5O6zILCwB3HJus_SawHiq2b-uoDgV8RsKLG68uFCEiZyodHwetYdyZoVF8O4Ff53LnMnRh77-WN2sykd-_dGKV6wX4susxaxJQG-kGE9yKrenrWDIJBuZ_JrPsnwLA1sxX94tw4KOnOd8oH5aog4Rr8MiwPu_0a0?></g></svg>